# AST/ASF file generated using VICON BodyLanguage
# -----------------------------------------------
:version 1.10
:name VICON
:units
  mass 1.0
  length 0.45
  angle deg
:documentation
   .ast/.asf automatically generated from VICON data using
   VICON BodyBuilder and BodyLanguage model FoxedUp or BRILLIANT.MOD
:root
   order TX TY TZ RX RY RZ
   axis XYZ
   position 0 0 0  
   orientation 0 0 0 
:bonedata
  begin
     id 1 
     name lhipjoint
     direction 0.630305 -0.712092 0.309259 
     length 2.29033 
     axis 0 0 0  XYZ
  end
  begin
     id 2 
     name lfemur
     direction 0.34202 -0.939693 0  
     length 6.43538  
     axis 0 0 20  XYZ
    dof rx ry rz
    limits (-160.0 20.0)
           (-70.0 70.0)
           (-60.0 70.0)
  end
  begin
     id 3 
     name ltibia
     direction 0.34202 -0.939693 0   
     length 7.43097   
     axis 0 0 20   XYZ
    dof rx
    limits (-10.0 170.0)
  end
  begin
     id 4 
     name lfoot
     direction 0.0334653 -0.0919451 0.995202   
     length 1.78438   
     axis -90 7.62852e-016 20   XYZ
    dof rx rz
    limits (-45.0 90.0)
           (-70.0 20.0)
  end
  begin
     id 5 
     name ltoes
     direction 1.53535e-011 -4.21933e-011 1   
     length 0.90832   
     axis -90 7.62852e-016 20   XYZ
    dof rx
    limits (-90.0 20.0)
  end
  begin
     id 6 
     name rhipjoint
     direction -0.682059 -0.67077 0.291312   
     length 2.43143  
     axis 0 0 0  XYZ 
  end
  begin
     id 7 
     name rfemur
     direction -0.34202 -0.939693 0   
     length 6.63488   
     axis 0 0 -20   XYZ
    dof rx ry rz
    limits (-160.0 20.0)
           (-70.0 70.0)
           (-70.0 60.0)
  end
  begin
     id 8 
     name rtibia
     direction -0.34202 -0.939693 0   
     length 6.86532   
     axis 0 0 -20   XYZ
    dof rx
    limits (-10.0 170.0)
 end
 begin
     id 9 
     name rfoot
     direction -0.105199 -0.289033 0.951521   
     length 1.77126  
     axis -90 -7.62852e-016 -20   XYZ
    dof rx rz
    limits (-45.0 90.0)
           (-20.0 70.0)
  end
  begin
     id 10 
     name rtoes
     direction -1.53551e-011 -4.21978e-011 1   
     length 0.889273   
     axis -90 -7.62852e-016 -20   XYZ
    dof rx
    limits (-90.0 20.0)
  end
  begin
     id 11 
     name lowerback
     direction -0.0514305 0.998089 0.034245   
     length 2.02077   
     axis 0 0 0   XYZ
    dof rx ry rz
    limits (-20.0 45.0)
           (-30.0 30.0)
           (-30.0 30.0)
  end
  begin
     id 12 
     name upperback
     direction 0.0203189 0.999449 -0.0262315   
     length 2.01413   
     axis 0 0 0   XYZ
    dof rx ry rz
    limits (-20.0 45.0)
           (-30.0 30.0)
           (-30.0 30.0)
  end
  begin
     id 13 
     name thorax
     direction 0.0452736 0.998142 -0.0407729   
     length 2.02986   
     axis 0 0 0   XYZ
    dof rx ry rz
    limits (-20.0 45.0)
           (-30.0 30.0)
           (-30.0 30.0)
  end
  begin
     id 14 
     name lowerneck
     direction -0.0180464 0.999645 -0.0195774   
     length 1.59034   
     axis 0 0 0   XYZ
    dof rx ry rz
    limits (-20.0 45.0)
           (-30.0 30.0)
           (-30.0 30.0)
  end
  begin
     id 15 
     name upperneck
     direction 0.0732272 0.979935 -0.18538   
     length 1.57486   
     axis 0 0 0   XYZ
    dof rx ry rz
    limits (-20.0 45.0)
           (-30.0 30.0)
           (-30.0 30.0)
  end
  begin
     id 16
     name head
     direction 0.0252963 0.997909 -0.059472  
     length 1.60334  
     axis 0 0 0   XYZ
    dof rx ry rz
    limits (-20.0 45.0)
           (-30.0 30.0)
           (-30.0 30.0)
  end
  begin
     id 17 
     name lclavicle
     direction 0.943819 0.330449 0.00315172  
     length 3.50322  
     axis 0 0 0   XYZ
    dof ry rz
    limits (-20.0 10.0)
           (0.0 20.0)
  end
  begin
     id 18 
     name lhumerus
     direction 1 -4.48949e-011 2.22502e-028   
     length 4.63208   
     axis 180 -30 -90   XYZ
    dof rx ry rz
    limits (-60.0 90.0)
           (-90.0 90.0)
           (-90.0 90.0)
  end
  begin
     id 19
     name lradius
     direction 1 -4.48967e-011 -4.10197e-027   
     length 3.41924   
     axis 180 -30 -90   XYZ
    dof rx
    limits (-10.0 170.0)
  end
  begin
     id 20
     name lwrist
     direction 1 -4.48987e-011 -1.24264e-027   
     length 1.70962   
     axis 2.50585e-015 90 90   XYZ
    dof ry
    limits (-180.0 0.0)
 end
  begin
     id 21 
     name lhand
     direction 1 -4.48983e-011 -2.48528e-027   
     length 0.62537   
     axis 1.58582e-015 90 90   XYZ
    dof rx rz
    limits (-90.0 90.0)
           (-45.0 45.0)
  end
  begin
     id 22 
     name lfingers
     direction 1 -4.48896e-011 -4.97056e-027   
     length 0.50419   
     axis 3.17164e-015 90 90   XYZ
    dof rx
    limits (0.0 90.0)
  end
  begin
     id 23
     name lthumb
     direction 0.707107 -6.34803e-011 0.707107   
     length 0.723919   
     axis -90 45 2.85299e-015   XYZ
    dof rx rz
    limits (-45.0 45.0)
           (-45.0 45.0)
  end
  begin
     id 24 
     name rclavicle
     direction -0.964499 0.260664 -0.0423695   
     length 3.91997  
     axis 0 0 0   XYZ 
    dof ry rz
    limits (-10.0 20.0)
           (-20.0 0.0)
  end
  begin
     id 25 
     name rhumerus
     direction -1 -4.48957e-011 -1.98656e-027  
     length 4.4064   
     axis 180 30 90   XYZ
    dof rx ry rz
    limits (-90.0 60.0)
           (-90.0 90.0)
           (-90.0 90.0)
  end
  begin
     id 26 
     name rradius
     direction -1 -4.48968e-011 1.96972e-027   
     length 3.44675   
     axis 180 30 90   XYZ
    dof rx
    limits (-10.0 170.0)
  end
  begin
     id 27 
     name rwrist
     direction -1 -4.48974e-011 -1.24264e-027   
     length 1.72338   
     axis 2.50585e-015 -90 -90   XYZ
    dof ry
    limits (-180.0 0.0)
  end
  begin
     id 28
     name rhand
     direction -1 -4.48901e-011 -2.48528e-027   
     length 0.513674   
     axis 1.58582e-015 -90 -90   XYZ
    dof rx rz
    limits (-90.0 90.0)
           (-45.0 45.0)
  end
  begin
     id 29
     name rfingers
     direction -1 -4.48946e-011 -4.97056e-027   
     length 0.414137   
     axis 3.17164e-015 -90 -90   XYZ
    dof rx
    limits (0.0 90.0)
  end
  begin
     id 30
     name rthumb
     direction -0.707107 -6.34859e-011 0.707107   
     length 0.59462   
     axis -90 -45 -2.85299e-015   XYZ
    dof rx rz
    limits (-45.0 45.0)
           (-45.0 45.0)
  end
:hierarchy
  begin
    root lhipjoint rhipjoint lowerback
    lhipjoint lfemur
    lfemur ltibia
    ltibia lfoot
    lfoot ltoes
    rhipjoint rfemur
    rfemur rtibia
    rtibia rfoot
    rfoot rtoes
    lowerback upperback
    upperback thorax
    thorax lowerneck lclavicle rclavicle
    lowerneck upperneck
    upperneck head
    lclavicle lhumerus
    lhumerus lradius
    lradius lwrist
    lwrist lhand lthumb
    lhand lfingers
    rclavicle rhumerus
    rhumerus rradius
    rradius rwrist
    rwrist rhand rthumb
    rhand rfingers
  end

#!OML:ASF E:\inclinewalkrobotboard\Project 1\Capture day 1\Session 1\subject1.ASF
:FULLY-SPECIFIED
:DEGREES
145
root 9.81203 12.7399 -8.74146 0.751264 3.27586 2.65085
lowerback 13.278 1.25942 -4.66859
upperback 9.14187 1.20225 1.43417
thorax 2.08684 0.363615 3.99472
lowerneck -9.05887 0.542862 -1.02218
upperneck 25.0594 0.665562 1.26262
head 9.35336 0.360542 0.681491
rclavicle 1.19271e-014 -2.22639e-014
rhumerus 49.799 25.044 -11.8296
rradius 56.8128
rwrist 4.33662
rhand -26.37 -26.5605
rfingers 7.12502
rthumb 0.188385 -56.5402
lclavicle 1.19271e-014 -2.22639e-014
lhumerus 57.3541 -24.9492 13.1052
lradius 49.9603
lwrist -24.441
lhand -42.6093 -37.9636
lfingers 7.12502
lthumb -15.4821 -8.56355
rfemur -42.3358 -6.27277 14.2293
rtibia 0
rfoot 0 0
rtoes 0
lfemur -45.6511 -2.51896 -15.9971
ltibia 0
lfoot 0 0
ltoes 0
146
root 9.80962 12.7412 -8.74841 0.772754 3.26156 2.59738
lowerback 13.3174 1.26979 -4.61965
upperback 9.14067 1.21884 1.44584
thorax 2.0628 0.374386 3.97685
lowerneck -9.29308 0.529336 -0.841743
upperneck 25.125 0.653145 1.10382
head 9.42279 0.354839 0.596313
rclavicle -3.97569e-016 -9.54166e-015
rhumerus 49.8094 25.028 -11.7878
rradius 56.8612
rwrist 4.3096
rhand -26.3085 -26.5975
rfingers 7.12502
rthumb 0.247755 -56.5771
lclavicle -3.97569e-016 -9.54166e-015
lhumerus 57.4387 -24.9599 13.0113
lradius 49.9314
lwrist -24.7967
lhand -42.7522 -37.015
lfingers 7.12502
lthumb -15.6198 -7.62565
rfemur -42.3994 -6.23899 14.3159
rtibia 0
rfoot 0 0
rtoes 0
lfemur -45.7418 -2.48748 -15.9135
ltibia 0
lfoot 0 0
ltoes 0
147
root 9.81374 12.7399 -8.74048 0.686249 3.2485 2.71692
lowerback 13.3256 1.27186 -4.7147
upperback 9.17396 1.21221 1.41917
thorax 2.09491 0.366143 4.00362
lowerneck -9.21562 0.598345 -0.681201
upperneck 24.9752 0.75706 0.947176
head 9.35565 0.401163 0.524601
rclavicle -1.78906e-015 -5.1684e-015
rhumerus 49.8449 25.0648 -11.7333
rradius 56.9124
rwrist 4.3772
rhand -26.2736 -26.4567
rfingers 7.12502
rthumb 0.281507 -56.4362
lclavicle -1.78906e-015 -5.1684e-015
lhumerus 57.4416 -24.9901 13.0599
lradius 49.9031
lwrist -25.0076
lhand -42.7915 -36.7355
lfingers 7.12502
lthumb -15.6576 -7.34905
rfemur -42.2479 -6.29851 14.1288
rtibia 0
rfoot 0 0
rtoes 0
lfemur -45.5482 -2.56853 -16.0848
ltibia 0
lfoot 0 0
ltoes 0
148
root 9.81099 12.7412 -8.75121 0.736763 3.21046 2.52925
lowerback 13.3884 1.2689 -4.56291
upperback 9.15825 1.22009 1.46943
thorax 2.04361 0.376854 3.96874
lowerneck -9.3733 0.661 -0.534613
upperneck 24.9796 0.855504 0.791316
head 9.38793 0.443684 0.457231
rclavicle -1.41137e-014 -4.37326e-015
rhumerus 49.9109 25.0398 -11.7212
rradius 56.9278
rwrist 4.54607
rhand -26.3 -26.4115
rfingers 7.12502
rthumb 0.256025 -56.3911
lclavicle -1.41137e-014 -4.37326e-015
lhumerus 57.443 -24.9062 13.1838
lradius 49.8717
lwrist -24.9994
lhand -42.7274 -37.1024
lfingers 7.12502
lthumb -15.5959 -7.71121
rfemur -42.4224 -6.19496 14.3919
rtibia 0
rfoot 0 0
rtoes 0
lfemur -45.7233 -2.45744 -15.8429
ltibia 0
lfoot 0 0
ltoes 0
149
root 9.81221 12.7412 -8.75004 0.665919 3.20248 2.67369
lowerback 13.4002 1.28397 -4.67923
upperback 9.24118 1.22915 1.4181
thorax 2.12566 0.37405 3.98023
lowerneck -9.63077 0.69612 -0.647857
upperneck 25.0506 0.891452 0.937076
head 9.4602 0.465317 0.532508
rclavicle 3.97569e-015 3.97569e-016
rhumerus 49.9321 24.9621 -11.7605
rradius 56.9296
rwrist 4.64621
rhand -26.3821 -26.5074
rfingers 7.12502
rthumb 0.176672 -56.487
lclavicle 3.97569e-015 3.97569e-016
lhumerus 57.4876 -24.7721 13.293
lradius 49.8719
lwrist -24.8219
lhand -42.4206 -37.6971
lfingers 7.12502
lthumb -15.3004 -8.28307
rfemur -42.3167 -6.25119 14.197
rtibia 0
rfoot 0 0
rtoes 0
lfemur -45.5635 -2.51302 -16.0212
ltibia 0
lfoot 0 0
ltoes 0
150
root 9.8106 12.7419 -8.75475 0.669913 3.17457 2.67363
lowerback 13.5286 1.30482 -4.70752
upperback 9.13932 1.2455 1.43607
thorax 1.94598 0.387084 4.01043
lowerneck -9.45153 0.742539 -0.794234
upperneck 25.0265 0.949055 1.07774
head 9.4152 0.493512 0.610945
rclavicle 1.59028e-014 7.55382e-015
rhumerus 49.9047 25.0934 -11.7971
rradius 56.9691
rwrist 4.54497
rhand -26.4267 -26.5674
rfingers 7.12502
rthumb 0.133579 -56.5471
lclavicle 1.59028e-014 7.55382e-015
lhumerus 57.4552 -24.9041 13.341
lradius 49.9505
lwrist -24.5549
lhand -42.1411 -37.6777
lfingers 7.12502
lthumb -15.0311 -8.24331
rfemur -42.3542 -6.24053 14.2124
rtibia 0
rfoot 0 0
rtoes 0
lfemur -45.5911 -2.49135 -16.0052
ltibia 0
lfoot 0 0
ltoes 0
151
root 9.81563 12.7401 -8.74712 0.635654 3.17932 2.91804
lowerback 13.5281 1.32552 -4.90626
upperback 9.08554 1.25131 1.38102
thorax 1.88797 0.385644 4.06364
lowerneck -9.22949 0.757629 -0.862093
upperneck 24.8647 0.956114 1.18199
head 9.3148 0.50176 0.656507
rclavicle 1.03368e-014 1.51076e-014
rhumerus 49.8478 25.2336 -11.8231
rradius 57.0106
rwrist 4.48891
rhand -26.3803 -26.5097
rfingers 7.12502
rthumb 0.178435 -56.4894
lclavicle 1.03368e-014 1.51076e-014
lhumerus 57.4682 -25.0786 13.318
lradius 50.046
lwrist -24.2941
lhand -42.0728 -37.2075
lfingers 7.12502
lthumb -14.9653 -7.76822
rfemur -42.267 -6.32406 13.8844
rtibia 0
rfoot 0 0
rtoes 0
lfemur -45.4468 -2.61095 -16.3243
ltibia 0
lfoot 0 0
ltoes 0
152
root 9.81047 12.7435 -8.76332 0.825326 3.09812 2.29368
lowerback 13.513 1.33824 -4.34284
upperback 8.97845 1.32492 1.56138
thorax 1.7738 0.446297 3.92456
lowerneck -9.09335 0.803952 -0.791831
upperneck 24.6543 1.02474 1.10975
head 9.21535 0.532742 0.624432
rclavicle 9.14409e-015 1.27222e-014
rhumerus 49.8019 25.246 -11.8071
rradius 57.0313
rwrist 4.48093
rhand -26.4345 -26.4747
rfingers 7.12502
rthumb 0.126045 -56.4544
lclavicle 9.14409e-015 1.27222e-014
lhumerus 57.5185 -25.1163 13.3749
lradius 50.088
lwrist -24.2059
lhand -42.0789 -36.9797
lfingers 7.12502
lthumb -14.9712 -7.5408
rfemur -42.618 -6.04811 14.7051
rtibia 0
rfoot 0 0
rtoes 0
lfemur -45.9467 -2.32508 -15.5574
ltibia 0
lfoot 0 0
ltoes 0
153
root 9.81564 12.7399 -8.75413 0.692941 3.16465 2.67149
lowerback 13.5274 1.34042 -4.6677
upperback 9.04731 1.29487 1.45463
thorax 1.84269 0.41758 4.00041
lowerneck -9.03629 0.85075 -0.721475
upperneck 24.4899 1.08594 1.07029
head 9.14718 0.56355 0.603646
rclavicle -2.18663e-015 2.78299e-015
rhumerus 49.8205 25.2569 -11.8124
rradius 57.065
rwrist 4.43252
rhand -26.4586 -26.75
rfingers 7.12502
rthumb 0.10286 -56.7297
lclavicle -2.18663e-015 2.78299e-015
lhumerus 57.4943 -25.129 13.4404
lradius 50.1227
lwrist -24.1953
lhand -42.1883 -37.122
lfingers 7.12502
lthumb -15.0765 -7.69099
rfemur -42.3651 -6.2384 14.1917
rtibia 0
rfoot 0 0
rtoes 0
lfemur -45.6444 -2.55957 -16.0408
ltibia 0
lfoot 0 0
ltoes 0
154
root 9.81264 12.7414 -8.76288 0.758281 3.13195 2.37175
lowerback 13.5546 1.32382 -4.40094
upperback 9.00149 1.29858 1.5274
thorax 1.77917 0.431076 3.9246
lowerneck -8.99807 0.899931 -0.622469
upperneck 24.3405 1.15557 0.987186
head 9.08849 0.596237 0.564185
rclavicle 1.39149e-014 -1.07344e-014
rhumerus 49.8294 25.2604 -11.948
rradius 57.0832
rwrist 4.58028
rhand -26.3176 -27.1006
rfingers 7.12502
rthumb 0.238971 -57.0802
lclavicle 1.39149e-014 -1.07344e-014
lhumerus 57.4387 -25.1207 13.5059
lradius 50.1666
lwrist -24.2344
lhand -42.3456 -37.087
lfingers 7.12502
lthumb -15.228 -7.66743
rfemur -42.4892 -6.11486 14.58
rtibia 0
rfoot 0 0
rtoes 0
lfemur -45.8361 -2.46736 -15.6525
ltibia 0
lfoot 0 0
ltoes 0
155
root 9.81135 12.7426 -8.76655 0.783803 3.03819 2.408
lowerback 13.5547 1.36027 -4.47259
upperback 8.98989 1.33842 1.51766
thorax 1.76237 0.44878 3.94991
lowerneck -9.05093 0.887003 -0.779903
upperneck 24.2075 1.11474 1.20366
head 9.0498 0.585617 0.659907
rclavicle 6.16232e-015 -1.19271e-014
rhumerus 49.7877 25.2198 -12.122
rradius 57.1466
rwrist 4.44005
rhand -26.0466 -27.0979
rfingers 7.12502
rthumb 0.500713 -57.0771
lclavicle 6.16232e-015 -1.19271e-014
lhumerus 57.4062 -25.1094 13.6202
lradius 50.1891
lwrist -24.3372
lhand -42.5128 -36.1772
lfingers 7.12502
lthumb -15.3892 -6.76994
rfemur -42.5896 -6.01643 14.5636
rtibia 0
rfoot 0 0
rtoes 0
lfemur -45.8719 -2.40132 -15.671
ltibia 0
lfoot 0 0
ltoes 0
156
root 9.81143 12.7436 -8.76637 0.785827 2.9594 2.52118
lowerback 13.5519 1.40376 -4.60528
upperback 8.97929 1.38134 1.48009
thorax 1.74776 0.466235 3.98011
lowerneck -9.10711 0.867016 -0.881873
upperneck 24.2104 1.07511 1.33355
head 9.06018 0.571566 0.71789
rclavicle -5.56597e-015 -7.15625e-015
rhumerus 49.7321 25.2142 -12.1765
rradius 57.2667
rwrist 4.00719
rhand -25.9832 -26.9484
rfingers 7.12502
rthumb 0.561999 -56.9274
lclavicle -5.56597e-015 -7.15625e-015
lhumerus 57.426 -25.1379 13.6733
lradius 50.2032
lwrist -24.3581
lhand -42.7189 -34.8309
lfingers 7.12502
lthumb -15.5877 -5.43907
rfemur -42.6445 -5.95503 14.4417
rtibia 0
rfoot 0 0
rtoes 0
lfemur -45.8544 -2.35606 -15.8029
ltibia 0
lfoot 0 0
ltoes 0
157
root 9.81235 12.7423 -8.76622 0.821001 2.96172 2.49457
lowerback 13.5126 1.39955 -4.5837
upperback 8.95808 1.37953 1.48075
thorax 1.7463 0.46666 3.96911
lowerneck -9.16954 0.884469 -0.820475
upperneck 24.2541 1.09765 1.29422
head 9.08756 0.583461 0.697167
rclavicle -5.36719e-015 -2.38542e-015
rhumerus 49.8844 25.2815 -11.898
rradius 57.2646
rwrist 4.03731
rhand -26.1188 -27.1338
rfingers 7.12502
rthumb 0.43102 -57.1131
lclavicle -5.36719e-015 -2.38542e-015
lhumerus 57.4143 -25.1709 13.6825
lradius 50.2366
lwrist -24.3264
lhand -42.9238 -34.2467
lfingers 7.12502
lthumb -15.785 -4.87026
rfemur -42.699 -5.96295 14.4763
rtibia 0
rfoot 0 0
rtoes 0
lfemur -45.9174 -2.34429 -15.7766
ltibia 0
lfoot 0 0
ltoes 0
158
root 9.81314 12.7407 -8.76671 0.878442 2.98706 2.49045
lowerback 13.4676 1.36201 -4.58264
upperback 8.9168 1.33173 1.4782
thorax 1.73104 0.443978 3.97179
lowerneck -9.10545 0.95503 -0.770768
upperneck 24.1848 1.20386 1.21991
head 9.05106 0.629498 0.673231
rclavicle -1.39149e-015 5.96354e-015
rhumerus 50.2736 25.3839 -11.4499
rradius 57.152
rwrist 4.31655
rhand -26.0049 -27.6255
rfingers 7.12502
rthumb 0.541009 -57.6045
lclavicle -1.39149e-015 5.96354e-015
lhumerus 57.3101 -25.1876 13.7226
lradius 50.275
lwrist -24.2273
lhand -43.0293 -34.8786
lfingers 7.12502
lthumb -15.8866 -5.51026
rfemur -42.7704 -6.01277 14.4854
rtibia 0
rfoot 0 0
rtoes 0
lfemur -45.9955 -2.36916 -15.7744
ltibia 0
lfoot 0 0
ltoes 0
159
root 9.81195 12.7402 -8.76685 0.893922 2.9823 2.52481
lowerback 13.4664 1.34601 -4.642
upperback 8.8869 1.30399 1.46913
thorax 1.70236 0.429112 3.99891
lowerneck -8.96276 1.01606 -0.8355
upperneck 23.993 1.29362 1.24583
head 8.95595 0.668265 0.699447
rclavicle 1.98785e-014 1.59028e-014
rhumerus 50.4665 25.4595 -11.2434
rradius 57.1658
rwrist 4.3814
rhand -25.9292 -28.0627
rfingers 7.12502
rthumb 0.614138 -58.0416
lclavicle 1.98785e-014 1.59028e-014
lhumerus 57.2605 -25.1468 13.8415
lradius 50.2807
lwrist -23.8971
lhand -42.8687 -36.8026
lfingers 7.12502
lthumb -15.732 -7.42201
rfemur -42.8045 -6.02805 14.4527
rtibia 0
rfoot 0 0
rtoes 0
lfemur -45.9991 -2.39063 -15.806
ltibia 0
lfoot 0 0
ltoes 0
160
root 9.81093 12.7401 -8.76754 0.888713 2.97616 2.60452
lowerback 13.4484 1.35274 -4.76089
upperback 8.90746 1.30168 1.45987
thorax 1.73363 0.422032 4.05728
lowerneck -8.92753 1.04745 -0.95461
upperneck 23.8208 1.33698 1.33835
head 8.88746 0.687652 0.753632
rclavicle 2.5842e-015 -6.75868e-015
rhumerus 50.3069 25.4546 -11.4062
rradius 57.3422
rwrist 4.29206
rhand -26.1338 -28.1377
rfingers 7.12502
rthumb 0.416474 -58.117
lclavicle 2.5842e-015 -6.75868e-015
lhumerus 57.3349 -25.2672 13.5715
lradius 50.2958
lwrist -24.1676
lhand -43.0477 -33.7118
lfingers 7.12502
lthumb -15.9043 -4.34484
rfemur -42.8274 -6.03074 14.3643
rtibia 0
rfoot 0 0
rtoes 0
lfemur -45.9777 -2.42355 -15.8936
ltibia 0
lfoot 0 0
ltoes 0
